<svg xmlns="http://www.w3.org/2000/svg" width="23.763" height="23.108" viewBox="0 0 23.763 23.108"><g transform="translate(-16.735 -28.008)"><path d="M37.36,28.68a8.68,8.68,0,1,0-8.68,8.68A8.693,8.693,0,0,0,37.36,28.68Zm-8.68,7.253a7.339,7.339,0,0,1-5.131-2.122,7.253,7.253,0,1,1,10.262,0A7.339,7.339,0,0,1,28.68,35.933Z" transform="translate(-3.265 8.008)" fill="#4e88c7"/><path d="M66.417,64.209h0L59.589,56.3,58.2,59.078l7.176,6.134h0a.639.639,0,0,0,.5.193.733.733,0,0,0,.5-.193A.689.689,0,0,0,66.417,64.209Z" transform="translate(-26.116 -14.288)" fill="#4e88c7"/></g></svg>