<svg xmlns="http://www.w3.org/2000/svg" width="31.988" height="51" viewBox="0 0 31.988 51"><text transform="translate(0 33)" fill="#558dc9" font-size="10" font-family="SegoeUI, Segoe UI"><tspan x="2.099" y="11">Home</tspan></text><g transform="translate(15.769 19.315)"><rect width="7.5" height="7.5" fill="#558dc9"/></g><path d="M51.888,36.29,47.942,24.647a.976.976,0,0,0-.96-.641H43.409l-.32-2.991A1.108,1.108,0,0,0,41.969,20h0a1.108,1.108,0,0,0-1.12,1.015l-.32,2.991H25.012a1.183,1.183,0,0,0-.96.641c0,.053,0,.053-.053.107,0,.053,0,.053-.053.107L20,36.5v.32a1.177,1.177,0,0,0,1.013,1.228H24V50.07a2.027,2.027,0,0,0,2.026,2.03h20a2.027,2.027,0,0,0,2.026-2.03V38.053h2.879A1.236,1.236,0,0,0,51.888,36.29ZM46.022,50.07h-20V38.053h20Zm0-14.047H29.812L26.4,26.035H40.316L40,29.026l3.733-2.3-.053-.694h2.666L49.7,36.023Z" transform="translate(-20 -20)" fill="#558dc9"/></svg>