<svg xmlns="http://www.w3.org/2000/svg" width="77" height="47.976" viewBox="0 0 77 47.976"><g transform="translate(0 0.506)"><text transform="translate(0 29.47)" fill="#707070" font-size="10" font-family="SegoeUI, Segoe UI"><tspan x="5.377" y="11">New Scorecard</tspan></text><g transform="translate(18.84)"><path d="M0,5.828S12.189-5.7,10.6,3.675s6.183,0,6.183,0" transform="translate(0 22.644) rotate(-25)" fill="none" stroke="#707070" stroke-width="1"/><g transform="translate(16.861)"><path d="M22.567,20.353,35.654,7.266S35.629,2.787,31.3,3.638c-.05.025-12.728,12.728-12.728,12.728l-1.71,5.939Z" transform="translate(-16.861 -3.53)" fill="none" stroke="#707070" stroke-width="1"/><path d="M18.888,16.5l3.7,3.879" transform="translate(-16.861 -3.53)" fill="none" stroke="#707070" stroke-width="1"/><path d="M17.612,19.379l1.814,2.051Z" transform="translate(-16.861 -3.53)" fill="none" stroke="#707070" stroke-width="1"/><path d="M29.9,5.039l3.954,3.954" transform="translate(-16.861 -3.53)" fill="none" stroke="#707070" stroke-width="1"/><path d="M21.416,16.175l8.437-8.437" transform="translate(-16.861 -3.53)" fill="none" stroke="#707070" stroke-width="1"/><path d="M22.592,17.5l8.5-8.5" transform="translate(-16.861 -3.53)" fill="none" stroke="#707070" stroke-width="1"/></g></g></g></svg>