<svg xmlns="http://www.w3.org/2000/svg" width="17" height="14.659" viewBox="0 0 17 14.659"><path d="M264,398l3.806,3.806L271.611,398" transform="translate(276.612 412.306) rotate(180)" fill="none" stroke="#96b7dc" stroke-width="1"/><g transform="translate(3718 974)" fill="none"><path d="M-3715.875-966a2.066,2.066,0,0,1-2.125-2,2.066,2.066,0,0,1,2.125-2c.06,0,.12,0,.179.007a3.182,3.182,0,0,1,3.009-2.007,3.4,3.4,0,0,1,.542.043,4.3,4.3,0,0,1,3.708-2.043,4.208,4.208,0,0,1,4.136,3.074,2.818,2.818,0,0,1,.646-.074,2.582,2.582,0,0,1,2.656,2.5,2.581,2.581,0,0,1-2.656,2.5Z" stroke="none"/><path d="M -3703.65625 -967.0003051757813 C -3702.742919921875 -967.0003051757813 -3702 -967.6730346679688 -3702 -968.5 C -3702 -969.3272705078125 -3702.742919921875 -970.000244140625 -3703.65625 -970.000244140625 C -3703.7978515625 -970.000244140625 -3703.93798828125 -969.9841918945313 -3704.07275390625 -969.9524536132813 L -3705.031005859375 -969.72705078125 L -3705.271484375 -970.6817016601563 C -3705.432861328125 -971.3220825195313 -3705.828125 -971.9058227539063 -3706.384765625 -972.3253784179688 C -3706.970458984375 -972.7667846679688 -3707.680419921875 -973.0001220703125 -3708.4375 -973.0001220703125 C -3709.621826171875 -973.0001220703125 -3710.713623046875 -972.4038696289063 -3711.286865234375 -971.4440307617188 L -3711.635009765625 -970.8614501953125 L -3712.304931640625 -970.9695434570313 C -3712.43017578125 -970.9898071289063 -3712.55908203125 -971.0000610351563 -3712.68798828125 -971.0000610351563 C -3713.624755859375 -971.0000610351563 -3714.45751953125 -970.4550170898438 -3714.759765625 -969.643798828125 L -3715.02294921875 -968.9373779296875 L -3715.7744140625 -968.9960327148438 C -3715.80859375 -968.9986572265625 -3715.842529296875 -969 -3715.87548828125 -969 C -3716.495849609375 -969 -3717.00048828125 -968.5513916015625 -3717.00048828125 -967.9999389648438 C -3717.00048828125 -967.44873046875 -3716.495849609375 -967.0003051757813 -3715.87548828125 -967.0003051757813 L -3703.65625 -967.0003051757813 M -3703.65625 -966.0003051757813 L -3715.87548828125 -966.0003051757813 C -3717.048583984375 -966.0003051757813 -3718.00048828125 -966.8956298828125 -3718.00048828125 -967.9999389648438 C -3718.00048828125 -969.1046752929688 -3717.048583984375 -970 -3715.87548828125 -970 C -3715.815185546875 -970 -3715.75537109375 -969.99755859375 -3715.69677734375 -969.9929809570313 C -3715.26123046875 -971.1618041992188 -3714.07861328125 -972.0000610351563 -3712.68798828125 -972.0000610351563 C -3712.5029296875 -972.0000610351563 -3712.32177734375 -971.9852294921875 -3712.1455078125 -971.956787109375 C -3711.417236328125 -973.1761474609375 -3710.029541015625 -974.0001220703125 -3708.4375 -974.0001220703125 C -3706.42919921875 -974.0001220703125 -3704.74560546875 -972.6885375976563 -3704.3017578125 -970.9259033203125 C -3704.09521484375 -970.9744873046875 -3703.87890625 -971.000244140625 -3703.65625 -971.000244140625 C -3702.18896484375 -971.000244140625 -3701 -969.8809814453125 -3701 -968.5 C -3701 -967.1195678710938 -3702.18896484375 -966.0003051757813 -3703.65625 -966.0003051757813 Z" stroke="none" fill="#96b7dc"/></g></svg>